PathFileType	4	(X/Y/Z)	F:\MotionCapture\20160217\3\Generated_files\2_Test01-Dynamic.trc
DataRate	CameraRate	NumFrames	NumMarkers	Units	OrigDataRate	OrigDataStartFrame	OrigNumFrames
120.00	120.00	       4	39	mm	120.00	1	       690
Frame#	Time	Top.Head			Front.Head			Rear.Head			R.Shoulder			R.Offset			R.Elbow			R.Wrist			L.Shoulder			L.Elbow			L.Wrist			R.ASIS			L.ASIS			V.Sacral			R.Thigh			R.Knee			R.Shank			R.Ankle			R.Heel			R.Toe			L.Thigh			L.Knee			L.Shank			L.Ankle			L.Heel			L.Toe			R1			R2			R3			R4			R5			R6			R7			L1			L2			L3			L4			L5			L6			L7			V_Mid_ASIS			V_Pelvis_Origin			V_R.Hip_JC			V_L.Hip_JC			V_R.Knee_JC			V_L.Knee_JC			V_R.Ankle_JC			V_L.Ankle_JC			V_Mid_Hip			V_Mid_Shoulder			V_R.Hand			V_L.Hand			V_R.Toe_Offset_Static			V_L.Toe_Offset_Static			V_R.Toe_Offset			V_L.Toe_Offset			
		X1	Y1	Z1	X2	Y2	Z2	X3	Y3	Z3	X4	Y4	Z4	X5	Y5	Z5	X6	Y6	Z6	X7	Y7	Z7	X8	Y8	Z8	X9	Y9	Z9	X10	Y10	Z10	X11	Y11	Z11	X12	Y12	Z12	X13	Y13	Z13	X14	Y14	Z14	X15	Y15	Z15	X16	Y16	Z16	X17	Y17	Z17	X18	Y18	Z18	X19	Y19	Z19	X20	Y20	Z20	X21	Y21	Z21	X22	Y22	Z22	X23	Y23	Z23	X24	Y24	Z24	X25	Y25	Z25	X26	Y26	Z26	X27	Y27	Z27	X28	Y28	Z28	X29	Y29	Z29	X30	Y30	Z30	X31	Y31	Z31	X32	Y32	Z32	X33	Y33	Z33	X34	Y34	Z34	X35	Y35	Z35	X36	Y36	Z36	X37	Y37	Z37	X38	Y38	Z38	X39	Y39	Z39	

1	0.000	2375.56543	118.27584	1732.84912	2305.52393	28.64578	1652.49341	2456.58667	194.04018	1662.39355	2421.95972	323.25531	1430.29175	2571.36841	63.12491	1277.41028	2424.80420	412.94730	1099.99768	2308.94214	387.10239	867.03314	2428.19458	-85.31071	1429.92761	2418.94922	-166.90244	1098.78711	2309.24487	-129.94118	868.77618	2344.59619	274.66745	961.70032	2342.78711	-15.60353	962.58185	2568.78564	127.47327	951.24371	2329.16968	249.62608	576.90295	2415.36743	301.58493	472.18448	2429.58008	239.09091	236.98694	2503.17212	320.32822	79.29781	2565.09741	257.07016	50.85028	2356.06372	304.68948	46.32346	2312.10376	14.77954	627.87921	2418.32666	-36.62304	474.33667	2411.18994	30.72964	331.01157	2495.69092	-45.06775	73.64840	2556.56567	14.38132	52.38895	2352.14697	-43.65041	46.75977	2305.39429	285.30060	42.65155	2349.77075	267.51639	52.55028	2446.52832	230.67659	58.92455	2522.79907	228.06894	49.65273	2536.60278	301.84253	52.62013	2460.57349	330.67181	43.89201	2394.24902	348.41129	42.52961	2304.64648	-21.02989	40.51105	2340.25830	-5.18017	49.97430	2434.20093	41.26731	52.69566	2519.48267	44.78584	49.94798	2532.06934	-26.53032	53.54598	2458.27832	-56.67464	41.28263	2396.77856	-74.03641	45.05107																																																	2135.21973	316.27148	774.54456	2930.88428	150.00632	-121.71671	3377.88501	179.81595	-183.04083	
2	0.008	2375.85547	118.04634	1732.87903	2305.60718	28.53700	1652.49988	2456.64917	193.94933	1662.39941	2421.80664	323.21533	1430.36719	2571.44507	63.17190	1277.44800	2424.56104	412.88492	1100.13660	2308.53491	386.81561	867.02936	2428.56982	-85.38877	1429.94214	2419.13916	-166.93776	1098.80737	2309.23413	-130.08119	868.81958	2344.52539	274.75568	961.66473	2342.80566	-15.58608	962.57147	2568.87891	127.53430	951.25128	2329.09937	249.70081	576.92395	2415.39526	301.58368	472.18323	2429.97656	239.21672	236.87918	2503.16064	320.34622	79.32859	2565.10645	257.08447	50.82776	2356.04761	304.71652	46.31461	2312.15894	14.78643	627.86023	2418.35400	-36.65746	474.39316	2410.95825	30.75709	331.11798	2495.68726	-45.21619	73.71072	2556.58740	14.38129	52.40717	2352.10059	-43.64995	46.70252	2305.40991	285.30679	42.63539	2349.74121	267.53500	52.55219	2446.42798	230.79518	58.93186	2522.78149	228.11102	49.64369	2536.62305	301.81589	52.63556	2460.65356	330.76044	43.87734	2394.27368	348.36490	42.60035	2304.58447	-20.99831	40.44331	2340.26685	-5.20903	50.06443	2434.17627	41.28650	52.61626	2519.49683	44.78974	49.98926	2532.06982	-26.52573	53.51747	2458.26196	-56.60968	41.24101	2396.84204	-73.99048	44.97475																																																	2930.46265	149.95209	-121.54618	3377.92090	179.65808	-183.01141	
3	0.017	2376.06348	117.80370	1732.88489	2305.67114	28.41375	1652.53491	2456.75928	193.89044	1662.38452	2421.62671	323.13553	1430.42981	2571.53296	63.27101	1277.48584	2424.38110	412.88556	1100.23438	2308.27173	386.45337	867.19550	2428.92529	-85.37861	1429.96619	2419.38379	-166.99081	1098.77319	2309.21191	-130.18251	868.93781	2344.37134	274.78204	961.82813	2342.80103	-15.58254	962.61627	2568.93311	127.61333	951.26080	2329.22119	249.81819	577.03357	2415.38232	301.59930	472.19788	2429.65894	239.08289	237.00774	2503.18408	320.41336	79.38459	2565.11670	257.05591	50.81440	2356.05640	304.73657	46.32451	2312.34180	14.71221	627.94061	2418.42383	-36.67525	474.47339	2411.00659	30.77365	331.11734	2495.67529	-45.20277	73.70576	2556.57324	14.39013	52.38654	2352.11743	-43.69825	46.80434	2305.39697	285.32639	42.69151	2349.75513	267.50214	52.55401	2446.49609	230.73524	58.92093	2522.80566	228.16997	49.67699	2536.63159	301.82996	52.63197	2460.68579	330.71524	43.95263	2394.29663	348.41043	42.63993	2304.72363	-21.07101	40.51026	2340.29150	-5.17427	50.04393	2434.25488	41.30248	52.69200	2519.50537	44.78792	50.00943	2532.08252	-26.51282	53.53357	2458.30811	-56.66170	41.27040	2396.84277	-73.97024	45.12423																																																	2931.08008	149.73718	-121.69516	3377.75854	179.70018	-182.96181	
4	0.025	2376.23438	117.62230	1732.87939	2305.84814	28.24775	1652.51611	2454.83301	191.85194	1662.09302	2421.56250	323.11298	1430.53735	2571.57788	63.33258	1277.50061	2424.08008	412.81885	1100.19263	2307.87939	386.03720	867.07483	2429.21558	-85.47754	1430.05237	2419.57886	-167.05600	1098.67041	2309.24976	-130.20932	868.89191	2344.56689	274.72559	961.77576	2342.96924	-15.53642	962.64703	2568.96631	127.61850	951.26807	2329.25269	249.80046	576.93396	2415.41943	301.64603	472.24994	2429.80322	239.13138	236.95076	2503.21802	320.35892	79.37934	2565.09985	257.13165	50.84996	2356.05542	304.71622	46.35391	2312.40576	14.72630	627.91742	2418.50732	-36.59813	474.45789	2411.35840	30.73182	331.04105	2495.67725	-45.21365	73.68994	2556.58228	14.35408	52.39811	2352.17163	-43.66241	46.77230	2305.44019	285.31979	42.70570	2349.73242	267.56036	52.55505	2446.51782	230.71964	59.00374	2522.78076	228.13557	49.63834	2536.62695	301.84882	52.63622	2460.77490	330.68167	43.99971	2394.30078	348.38217	42.66804	2304.77954	-21.06438	40.52721	2340.31372	-5.17995	50.03836	2434.38843	41.37702	52.72857	2519.50537	44.77375	50.01879	2532.12769	-26.56396	53.61340	2458.29395	-56.63729	41.24784	2396.83350	-73.94344	45.07321																																																	3377.31519	179.72334	-182.92758	2930.62866	149.85356	-121.58918	
